<svg width="109" height="99" viewBox="0 0 109 99" fill="none" xmlns="http://www.w3.org/2000/svg">
<g filter="url(#filter0_dd_136_1026)">
<path d="M70.0757 18.9086C67.2256 17.5527 64.1398 16.5686 60.9254 16C60.8689 16.0008 60.815 16.0244 60.7754 16.0656C60.3897 16.7873 59.9397 17.7277 59.6397 18.4494C56.2303 17.9248 52.7631 17.9248 49.3537 18.4494C49.0537 17.7058 48.6037 16.7873 48.1965 16.0656C48.1751 16.0219 48.1108 16 48.0465 16C44.8321 16.5686 41.7678 17.5527 38.8963 18.9086C38.8748 18.9086 38.8534 18.9305 38.832 18.9524C33.0032 27.8532 31.396 36.5134 32.1889 45.0862C32.1889 45.13 32.2104 45.1737 32.2532 45.1956C36.1105 48.0823 39.8177 49.8319 43.4821 50.9909C43.5464 51.0128 43.6107 50.9909 43.6321 50.9472C44.4893 49.7444 45.2607 48.476 45.925 47.1419C45.9679 47.0545 45.925 46.967 45.8393 46.9451C44.6178 46.464 43.4607 45.8954 42.3249 45.2393C42.2392 45.1956 42.2392 45.0644 42.3035 44.9987C42.5392 44.8238 42.7749 44.627 43.0107 44.452C43.0535 44.4083 43.1178 44.4083 43.1607 44.4301C50.5323 47.8636 58.4825 47.8636 65.7684 44.4301C65.8113 44.4083 65.8756 44.4083 65.9184 44.452C66.1541 44.6488 66.3899 44.8238 66.6256 45.0206C66.7113 45.0862 66.7113 45.2174 66.6042 45.2612C65.4898 45.9391 64.3112 46.4859 63.0898 46.967C63.0041 46.9889 62.9826 47.0982 63.0041 47.1638C63.6898 48.4978 64.4612 49.7663 65.297 50.9691C65.3613 50.9909 65.4256 51.0128 65.4898 50.9909C69.1757 49.8319 72.8829 48.0823 76.7401 45.1956C76.783 45.1737 76.8044 45.13 76.8044 45.0862C77.7473 35.1794 75.2401 26.5848 70.1614 18.9524C70.14 18.9305 70.1185 18.9086 70.0757 18.9086ZM47.0393 39.8594C44.8321 39.8594 42.9892 37.7819 42.9892 35.2231C42.9892 32.6644 44.7893 30.5868 47.0393 30.5868C49.3108 30.5868 51.1109 32.6863 51.0894 35.2231C51.0894 37.7819 49.2894 39.8594 47.0393 39.8594ZM61.9755 39.8594C59.7683 39.8594 57.9254 37.7819 57.9254 35.2231C57.9254 32.6644 59.7254 30.5868 61.9755 30.5868C64.2469 30.5868 66.047 32.6863 66.0256 35.2231C66.0256 37.7819 64.2469 39.8594 61.9755 39.8594Z" fill="white"/>
</g>
<defs>
<filter id="filter0_dd_136_1026" x="0" y="0" width="109" height="99" filterUnits="userSpaceOnUse" color-interpolation-filters="sRGB">
<feFlood flood-opacity="0" result="BackgroundImageFix"/>
<feColorMatrix in="SourceAlpha" type="matrix" values="0 0 0 0 0 0 0 0 0 0 0 0 0 0 0 0 0 0 127 0" result="hardAlpha"/>
<feOffset dy="16"/>
<feGaussianBlur stdDeviation="16"/>
<feComposite in2="hardAlpha" operator="out"/>
<feColorMatrix type="matrix" values="0 0 0 0 0 0 0 0 0 0 0 0 0 0 0 0 0 0 0.25 0"/>
<feBlend mode="normal" in2="BackgroundImageFix" result="effect1_dropShadow_136_1026"/>
<feColorMatrix in="SourceAlpha" type="matrix" values="0 0 0 0 0 0 0 0 0 0 0 0 0 0 0 0 0 0 127 0" result="hardAlpha"/>
<feOffset dy="3"/>
<feGaussianBlur stdDeviation="3.05"/>
<feComposite in2="hardAlpha" operator="out"/>
<feColorMatrix type="matrix" values="0 0 0 0 0 0 0 0 0 0 0 0 0 0 0 0 0 0 0.25 0"/>
<feBlend mode="normal" in2="effect1_dropShadow_136_1026" result="effect2_dropShadow_136_1026"/>
<feBlend mode="normal" in="SourceGraphic" in2="effect2_dropShadow_136_1026" result="shape"/>
</filter>
</defs>
</svg>
