<svg width="20" height="20" viewBox="0 0 20 20" fill="none" xmlns="http://www.w3.org/2000/svg">
<path d="M18.2707 0.0802488C18.3998 0.0975677 18.5159 0.191478 18.6123 0.27499C18.6922 0.343585 18.7632 0.424232 18.8341 0.500377C18.8945 0.567576 18.9563 0.634766 19.0152 0.701973C19.142 0.846841 19.2493 0.985811 19.1693 1.18429C19.1382 1.26098 19.0921 1.33175 19.0474 1.4025C18.9596 1.53951 18.8613 1.66907 18.7675 1.80311C18.766 1.80612 18.7615 1.81064 18.76 1.81365C18.6006 2.03056 18.4187 2.23259 18.2412 2.43309C17.8235 2.89894 17.4059 3.3633 16.9626 3.80378C16.8342 3.9305 16.7059 4.05572 16.5745 4.18095C16.0803 4.64721 15.5695 5.09406 15.0331 5.51403C14.7328 5.74969 14.4189 5.97643 14.0989 6.18369C14.0256 6.23059 13.9599 6.28946 13.8744 6.29441C13.6375 6.31068 13.2034 5.95138 13.1168 5.73728C13.0848 5.65342 13.1052 5.53628 13.1709 5.47291C13.2097 5.4367 13.253 5.40496 13.2919 5.37174C14.333 4.48695 15.3452 3.5333 16.258 2.50215C16.7323 1.96547 17.1734 1.40646 17.5799 0.816133C17.7288 0.60228 17.8594 0.336008 18.049 0.154948C18.0983 0.106673 18.1581 0.0748454 18.2257 0.0759869C18.2407 0.0759071 18.2557 0.0773278 18.2707 0.0802488Z" fill="#FCC21B"/>
<mask id="mask0_174_1447" style="mask-type:luminance" maskUnits="userSpaceOnUse" x="13" y="0" width="7" height="7">
<path d="M18.2707 0.0802488C18.3998 0.0975677 18.5159 0.191478 18.6123 0.27499C18.6922 0.343585 18.7632 0.424232 18.8341 0.500377C18.8945 0.567575 18.9563 0.634766 19.0152 0.701973C19.142 0.846841 19.2493 0.985811 19.1693 1.18429C19.1382 1.26098 19.0921 1.33175 19.0474 1.4025C18.9596 1.53951 18.8613 1.66907 18.7675 1.80311C18.766 1.80612 18.7615 1.81064 18.76 1.81365C18.6006 2.03056 18.4187 2.23259 18.2412 2.43309C17.8235 2.89894 17.4059 3.3633 16.9626 3.80378C16.8342 3.9305 16.7059 4.05572 16.5745 4.18095C16.0803 4.64721 15.5695 5.09406 15.0331 5.51403C14.7328 5.74969 14.4189 5.97643 14.0989 6.18369C14.0256 6.23059 13.9599 6.28946 13.8744 6.29441C13.6375 6.31068 13.2034 5.95138 13.1168 5.73728C13.0848 5.65342 13.1052 5.53628 13.1709 5.47291C13.2097 5.4367 13.253 5.40496 13.2919 5.37174C14.333 4.48695 15.3452 3.5333 16.258 2.50215C16.7323 1.96547 17.1734 1.40646 17.5799 0.816133C17.7288 0.60228 17.8594 0.336008 18.049 0.154948C18.0983 0.106673 18.1581 0.0748454 18.2257 0.0759869C18.2407 0.0759071 18.2557 0.0773278 18.2707 0.0802488Z" fill="white"/>
</mask>
<g mask="url(#mask0_174_1447)">
<path d="M15.6047 3.20919C15.6047 3.20919 15.2187 4.27205 15.5995 5.05026L14.8934 6.57095L13.3389 6.85379L12.0466 4.78706L13.7758 2.67426L15.6047 3.20919Z" fill="#F79329"/>
</g>
<path d="M6.51178 19.0661C6.79686 19.0646 7.15445 18.8737 7.57256 18.4963C7.69204 18.3907 7.81451 18.285 7.95341 18.1642C9.32749 16.9761 12.5446 14.1922 15.0449 9.77961C15.5845 8.82547 16.4541 6.71873 16.4906 6.53699C16.5257 6.35825 16.4799 6.22345 16.3488 6.12062L12.4285 3.06257C12.4224 3.0566 12.3546 3.00144 12.2496 3.002C12.1115 3.00273 11.9605 3.10256 11.8145 3.29239C11.3078 3.94778 9.42664 6.27145 6.40979 8.62966C5.15613 9.60861 2.69722 11.0771 1.35371 11.806L1.17417 11.9029C0.470986 12.2833 0.150821 12.4575 0.0886563 12.6184C0.0235253 12.7853 0.105496 12.9634 0.361925 13.2186C1.03013 13.8798 4.27807 17.1725 5.35826 18.277C5.38239 18.3009 5.41108 18.3353 5.4473 18.3741C5.6435 18.5906 6.04952 19.0416 6.47278 19.0679L6.51178 19.0661ZM13.1587 4.94623C13.3717 4.9451 13.5866 5.00547 13.7808 5.12148C14.3754 5.47692 14.624 6.23782 14.3345 6.81703C14.1578 7.17057 13.8183 7.38243 13.4222 7.38454C13.1671 7.38589 12.9146 7.30021 12.6932 7.13784C12.1524 6.7416 11.964 6.00889 12.2642 5.47014C12.4455 5.14358 12.7791 4.94825 13.1587 4.94623Z" fill="#40C0E7"/>
<path d="M14.2401 0.0790877C14.2446 0.076063 14.2491 0.0715379 14.2551 0.0685052C14.3224 0.0321369 14.4108 0.0211636 14.4874 0.0267584C14.6225 0.0365434 14.7561 0.0538383 14.8898 0.0786351C14.9889 0.0976139 15.0895 0.107582 15.1901 0.126553C15.6407 0.214184 15.5413 0.696353 15.5461 1.04293C15.5587 2.00314 15.4302 2.94459 15.1635 3.86728C15.0398 4.29856 14.8905 4.72698 14.7096 5.13756C14.5732 5.44587 14.4085 5.78435 14.1486 6.01079C14.1083 6.04552 14.0664 6.07725 14.0231 6.10749C13.9543 6.15137 13.8885 6.19523 13.8104 6.17764C13.6677 6.14689 13.5247 6.06963 13.4117 5.9772C13.3755 5.94738 13.3393 5.90857 13.3002 5.88177C13.2746 5.8654 13.2445 5.85955 13.2204 5.84168C12.9479 5.65557 13.2848 5.24716 13.3873 5.06356C13.5999 4.68583 13.7388 4.28147 13.8461 3.86378C13.9181 3.57531 13.9766 3.28392 14.026 2.98957C14.0726 2.71474 14.1056 2.43699 14.1326 2.15926C14.1582 1.89655 14.1748 1.63239 14.1839 1.36826C14.1931 1.11314 14.1917 0.858071 14.1784 0.603068C14.1701 0.45907 14.1101 0.183309 14.2401 0.0790877Z" fill="#FCC21B"/>
<mask id="mask1_174_1447" style="mask-type:luminance" maskUnits="userSpaceOnUse" x="13" y="0" width="3" height="7">
<path d="M14.2401 0.0790877C14.2446 0.076063 14.2491 0.0715379 14.2551 0.0685052C14.3224 0.0321369 14.4108 0.0211636 14.4874 0.0267584C14.6225 0.0365434 14.7561 0.0538383 14.8898 0.0786351C14.9889 0.0976139 15.0895 0.107582 15.1901 0.126553C15.6407 0.214184 15.5413 0.696353 15.5461 1.04293C15.5587 2.00314 15.4302 2.94459 15.1635 3.86728C15.0398 4.29856 14.8905 4.72698 14.7096 5.13756C14.5732 5.44587 14.4085 5.78435 14.1486 6.01079C14.1083 6.04552 14.0664 6.07725 14.0231 6.10749C13.9543 6.15137 13.8885 6.19523 13.8104 6.17764C13.6677 6.14689 13.5247 6.06963 13.4117 5.9772C13.3755 5.94738 13.3393 5.90857 13.3002 5.88177C13.2746 5.8654 13.2445 5.85955 13.2204 5.84168C12.9479 5.65557 13.2848 5.24716 13.3873 5.06356C13.5999 4.68583 13.7388 4.28147 13.8461 3.86378C13.9181 3.57531 13.9766 3.28392 14.026 2.98957C14.0726 2.71474 14.1056 2.43699 14.1326 2.15926C14.1582 1.89655 14.1748 1.63239 14.1839 1.36826C14.1931 1.11314 14.1917 0.858071 14.1784 0.603068C14.1701 0.45907 14.1101 0.183309 14.2401 0.0790877Z" fill="white"/>
</mask>
<g mask="url(#mask1_174_1447)">
<path d="M14.183 5.97735C14.183 5.97735 14.002 6.08485 13.7506 5.93764C13.4978 5.79044 13.1241 5.48934 13.2847 5.22741L12.8788 5.3601L12.7344 6.1381L13.229 6.60361L13.961 6.5652L14.183 5.97735Z" fill="#F79329"/>
</g>
<path d="M4.89072 11.5939C4.70014 12.4351 4.57842 14.0938 5.38196 15.9395C5.50349 16.221 5.2698 16.2927 5.14316 16.1779C4.78282 15.8527 2.41126 13.4301 2.41126 13.4301C2.41126 13.4301 1.81759 12.9591 2.29028 12.6865C2.64329 12.4821 3.95502 11.7009 4.5892 11.3239C4.79709 11.1983 4.95669 11.3024 4.89072 11.5939Z" fill="white"/>
</svg>
