<svg width="288" height="167" viewBox="0 0 288 167" fill="none" xmlns="http://www.w3.org/2000/svg">
<path d="M157.568 135.048L193.494 104.66C195.227 103.18 195.438 100.602 193.959 98.9114L131.364 24.9045C129.885 23.1716 127.306 22.9602 125.616 24.4395L89.69 54.8285C87.9571 56.3078 87.7458 58.8859 89.2251 60.5766L151.82 134.584C153.257 136.316 155.836 136.528 157.568 135.048Z" fill="#471C70"/>
<path opacity="0.3" d="M98.8617 70.2126L99.7915 69.4096L95.8608 64.7604C95.6495 64.5068 95.2691 64.4645 95.0155 64.6758C94.8887 64.8026 94.8042 64.9294 94.8042 65.0985C94.8042 65.2676 94.8465 65.4366 94.931 65.5634L98.8617 70.2126Z" fill="#210A3A"/>
<path opacity="0.3" d="M117.458 91.2189C117.712 91.0076 117.754 90.6272 117.543 90.3736L108.033 79.131C107.864 78.9197 107.526 78.8351 107.272 78.9619C107.061 79.0887 106.977 79.2578 106.934 79.4691C106.934 79.6382 106.977 79.8072 107.061 79.934L116.571 91.1767C116.824 91.388 117.205 91.4303 117.458 91.2189Z" fill="#210A3A"/>
<path opacity="0.3" d="M99.4111 70.8467L103.342 75.4959C103.553 75.7495 103.934 75.7918 104.187 75.5805C104.441 75.3691 104.483 74.9887 104.272 74.7351L100.341 70.0859L99.4111 70.8467Z" fill="#210A3A"/>
<path opacity="0.3" d="M89.1828 60.6189L151.82 134.584C153.257 136.316 155.878 136.528 157.568 135.048L158.16 134.541C156.427 135.978 153.849 135.767 152.412 134.076L89.8168 60.0694C88.3375 58.3365 88.5911 55.7583 90.2817 54.3213L89.69 54.8285C87.9571 56.3078 87.7458 58.886 89.1828 60.6189Z" fill="#210A3A"/>
<path d="M160.569 132.512L196.495 102.123C198.228 100.644 198.439 98.0659 196.96 96.3753L134.365 22.3683C132.885 20.6354 130.307 20.4241 128.617 21.9034L92.6908 52.2923C90.9579 53.7716 90.7466 56.3498 92.2259 58.0404L154.821 132.047C156.258 133.78 158.836 133.992 160.569 132.512Z" fill="#562E77"/>
<path d="M195.777 101.278C197.044 100.221 197.214 98.3195 196.115 97.0515L133.519 23.0868C132.463 21.8189 130.561 21.6498 129.293 22.7487L93.3671 53.1376C92.0991 54.1943 91.9301 56.0962 93.029 57.3642L155.624 131.329C156.681 132.597 158.583 132.766 159.851 131.667L195.777 101.278Z" fill="#B56ECC"/>
<path d="M93.029 57.3642L155.624 131.329C156.681 132.597 158.583 132.766 159.851 131.667L195.777 101.278C197.045 100.221 197.214 98.3195 196.115 97.0515L133.519 23.0868C132.463 21.8189 130.561 21.6498 129.293 22.7487L93.3671 53.1376C92.0992 54.1943 91.9724 56.0962 93.029 57.3642Z" fill="url(#paint0_linear_126_13663)"/>
<g opacity="0.5">
<path opacity="0.5" d="M95.9876 58.8015L154.906 128.413C156.596 130.399 159.47 130.695 161.372 129.089L169.487 122.2L104.525 45.4033L96.4102 52.2926C92.2259 55.5471 94.3392 56.815 95.9876 58.8015Z" fill="url(#paint1_linear_126_13663)"/>
<path opacity="0.5" d="M104.525 45.4029L169.53 122.199L183.731 110.154C183.942 109.985 184.111 109.773 184.28 109.562L119.403 32.9346C119.191 33.0614 118.938 33.2304 118.726 33.3995L104.525 45.4029Z" fill="url(#paint2_linear_126_13663)"/>
<path opacity="0.1" d="M119.36 32.8502L184.365 109.647L192.057 103.138C193.959 101.532 194.128 98.6154 192.437 96.6289L133.562 27.0176C131.871 25.0311 128.997 24.7352 127.095 26.3413L119.36 32.8502Z" fill="url(#paint3_linear_126_13663)"/>
</g>
<path opacity="0.4" d="M94.6352 57.5754L155.667 129.723C156.723 130.948 158.583 131.075 159.851 130.019L160.738 129.258C159.471 130.314 157.611 130.188 156.554 128.962L95.5227 56.8569C94.4661 55.6312 94.6774 53.7715 95.9454 52.7148L95.0578 53.4756C93.7898 54.49 93.5785 56.3497 94.6352 57.5754Z" fill="url(#paint4_linear_126_13663)"/>
<path opacity="0.4" d="M133.519 24.6928L194.551 96.8401C195.607 98.0658 195.396 99.9254 194.128 100.982L193.241 101.743C194.509 100.686 194.678 98.8265 193.663 97.6008L132.632 25.4536C131.575 24.2279 129.715 24.1011 128.448 25.1577L129.335 24.3969C130.603 23.3403 132.463 23.4671 133.519 24.6928Z" fill="url(#paint5_linear_126_13663)"/>
<g opacity="0.5">
<path d="M186.647 102.715L189.733 100.095C189.859 100.01 189.859 99.8413 189.775 99.7145C189.69 99.5877 189.521 99.5877 189.394 99.6722L186.309 102.293C186.182 102.377 186.182 102.546 186.267 102.673C186.351 102.8 186.52 102.8 186.647 102.715Z" fill="white"/>
<path d="M187.45 103.687L190.536 101.067C190.662 100.982 190.662 100.813 190.578 100.686C190.493 100.559 190.324 100.559 190.198 100.644L187.112 103.264C186.985 103.349 186.985 103.518 187.07 103.645C187.154 103.772 187.323 103.772 187.45 103.687Z" fill="white"/>
<path d="M188.253 104.575L191.339 101.954C191.465 101.87 191.465 101.701 191.381 101.574C191.296 101.447 191.127 101.447 191.001 101.532L187.915 104.152C187.788 104.237 187.788 104.406 187.873 104.532C187.957 104.659 188.126 104.701 188.253 104.575Z" fill="white"/>
<path d="M176.504 112.563C175.87 111.802 174.728 111.717 173.968 112.351C173.207 112.985 173.122 114.127 173.756 114.887C174.39 115.648 175.531 115.733 176.292 115.099C177.011 114.422 177.138 113.324 176.504 112.563ZM175.912 114.634C175.405 115.056 174.602 115.014 174.179 114.507C173.714 114 173.799 113.197 174.306 112.774C174.813 112.351 175.616 112.394 176.039 112.901C176.504 113.408 176.461 114.211 175.912 114.634Z" fill="white"/>
<path d="M160.95 125.834C160.95 125.919 160.908 125.961 160.865 126.003C160.823 126.046 160.738 126.088 160.654 126.088L159.851 126.003C159.64 126.003 159.47 125.792 159.513 125.581L159.555 124.862C159.555 124.693 159.682 124.609 159.851 124.609C160.02 124.609 160.104 124.735 160.104 124.904V125.116L161.795 123.679C162.345 123.214 163.148 123.298 163.612 123.848C164.077 124.397 163.993 125.2 163.443 125.665L161.626 127.229C161.499 127.314 161.33 127.314 161.246 127.187C161.161 127.06 161.161 126.891 161.288 126.806L163.105 125.243C163.401 124.989 163.443 124.524 163.19 124.186C162.936 123.89 162.471 123.848 162.133 124.101L160.485 125.496H160.696C160.865 125.538 160.992 125.665 160.95 125.834Z" fill="white"/>
</g>
<path d="M108.329 45.6569L119.445 36.2317C120.628 35.2596 120.84 33.6112 119.994 32.5968L118.304 30.6104L102.961 43.5859L104.652 45.5724C105.497 46.5867 107.146 46.629 108.329 45.6569Z" fill="#562E77"/>
<path d="M113.57 38.0485C113.528 38.0062 113.486 37.9217 113.401 37.8794C112.852 37.3722 112.006 37.3722 111.415 37.8794L111.372 37.9217C110.823 38.4289 110.738 39.2319 111.119 39.8236C111.161 39.8659 111.203 39.9504 111.245 39.9927C111.245 39.9927 111.245 40.035 111.288 40.035C111.837 40.6689 112.809 40.7535 113.443 40.204C114.035 39.6546 114.12 38.6825 113.57 38.0485Z" fill="#391A56"/>
<path d="M113.359 38.091C113.316 38.0488 113.316 38.0065 113.274 38.0065C112.767 37.4993 111.964 37.457 111.372 37.922C111.372 37.922 111.372 37.922 111.33 37.922C110.781 38.3869 110.654 39.2322 111.076 39.8239C111.119 39.8662 111.119 39.9084 111.161 39.9084L111.203 39.9507C111.71 40.5002 112.598 40.5847 113.147 40.0775C113.781 39.6126 113.866 38.6827 113.359 38.091Z" fill="#B56ECC"/>
<path d="M113.359 38.091C113.316 38.0488 113.316 38.0065 113.274 38.0065C112.767 37.4993 111.964 37.457 111.372 37.922C111.372 37.922 111.372 37.922 111.33 37.922C110.781 38.3869 110.654 39.2322 111.076 39.8239C111.119 39.8662 111.119 39.9084 111.161 39.9084L111.203 39.9507C111.71 40.5002 112.598 40.5847 113.147 40.0775C113.781 39.6126 113.866 38.6827 113.359 38.091Z" fill="url(#paint6_radial_126_13663)"/>
<path d="M112.26 39.3589C112.513 39.063 112.471 38.5559 112.175 38.3023C111.879 38.0487 111.372 38.0909 111.119 38.3868C110.865 38.6826 110.907 39.1898 111.203 39.4434C111.541 39.697 112.006 39.6548 112.26 39.3589Z" fill="url(#paint7_radial_126_13663)"/>
<path d="M113.401 39.486C113.57 39.2746 113.57 38.9788 113.359 38.7675C113.147 38.5984 112.851 38.5984 112.64 38.8097C112.471 39.0211 112.471 39.3169 112.682 39.5282C112.894 39.7396 113.19 39.6973 113.401 39.486Z" fill="url(#paint8_radial_126_13663)"/>
<path d="M99.1152 70.0017L100.045 69.1986L96.1144 64.5494C95.9031 64.2958 95.5227 64.2536 95.2691 64.4649C95.1423 64.5917 95.0577 64.7185 95.0577 64.8876C95.0577 65.0566 95.1 65.2257 95.1845 65.3525L99.1152 70.0017Z" fill="#562E77"/>
<path d="M117.67 91.0075C117.923 90.7962 117.966 90.4158 117.754 90.1622L108.245 78.9196C108.076 78.7082 107.737 78.6237 107.484 78.7505C107.273 78.8773 107.188 79.0464 107.146 79.2577C107.146 79.4267 107.188 79.5958 107.273 79.7226L116.782 90.9652C117.036 91.1766 117.416 91.2188 117.67 91.0075Z" fill="#562E77"/>
<path d="M99.6224 70.6353L103.553 75.2845C103.764 75.5381 104.145 75.5804 104.398 75.369C104.652 75.1577 104.694 74.7773 104.483 74.5237L100.552 69.8745L99.6224 70.6353Z" fill="#562E77"/>
<path opacity="0.4" d="M95.1423 64.5494C95.3959 64.3804 95.7341 64.4649 95.9031 64.6762L99.8338 69.3254L100.003 69.1986L96.0722 64.5494C95.8609 64.2958 95.4805 64.2536 95.2269 64.4649C95.2269 64.5072 95.1846 64.5494 95.1423 64.5494Z" fill="url(#paint9_linear_126_13663)"/>
<path opacity="0.4" d="M117.585 91.0498C117.628 91.0498 117.628 91.0075 117.67 91.0075C117.923 90.7962 117.966 90.4158 117.754 90.1622L108.245 78.9196C108.076 78.7082 107.737 78.6237 107.484 78.7505C107.399 78.7928 107.357 78.835 107.315 78.9196C107.315 78.9196 107.315 78.9196 107.357 78.9196C107.611 78.7928 107.949 78.8773 108.118 79.0886L117.628 90.3313C117.797 90.5003 117.797 90.8384 117.585 91.0498Z" fill="url(#paint10_linear_126_13663)"/>
<path opacity="0.4" d="M104.356 75.4113C104.398 75.4113 104.398 75.369 104.441 75.369C104.694 75.1577 104.737 74.7773 104.525 74.5237L100.594 69.8745L100.425 70.0013L104.356 74.6505C104.567 74.8619 104.525 75.2 104.356 75.4113Z" fill="url(#paint11_linear_126_13663)"/>
<path d="M279.589 73.8901C279.505 85.5132 274.813 99.1649 259.428 112.352C259.259 112.521 259.048 112.69 258.879 112.817L258.921 112.901L225.109 141.346C225.574 140.966 226.039 140.585 226.461 140.205C233.393 134.288 238.169 128.244 241.339 122.326C244.509 116.409 246.03 110.577 246.495 105.167C246.664 103.222 246.706 101.32 246.622 99.4608L279.589 73.8901Z" fill="#8EA314"/>
<path d="M276.673 79.3423C276.25 82.3854 275.489 85.344 274.39 88.2181C271.39 96.164 265.811 103.603 257.78 110.45C257.653 110.577 257.484 110.703 257.357 110.788L255.329 112.478L255.413 112.563L244.297 121.988C246.199 118.058 247.594 114 248.355 109.858C248.651 108.379 248.82 106.899 248.947 105.378C249.073 103.814 249.116 102.25 249.116 100.644L256.301 95.0651L269.361 84.9213L276.673 79.3423Z" fill="#DEE2C0"/>
<path d="M241.339 122.368C235.802 123.848 230.519 123.89 225.531 122.96C212.091 120.509 201.017 111.041 194.424 103.983L161.499 131.836C172.953 144.051 197.721 163.451 225.109 141.346C225.574 140.965 226.039 140.585 226.461 140.204C233.435 134.287 238.211 128.243 241.339 122.368Z" fill="#9CC61A"/>
<path d="M239.606 125.369C239.437 125.623 239.268 125.834 239.099 126.088C236.267 130.188 233.308 134.287 228.955 138.007C228.744 138.176 228.575 138.345 228.363 138.556C228.11 138.81 227.814 139.063 227.56 139.275C225.701 140.754 223.925 141.98 222.108 142.994C219.234 144.642 216.36 145.784 213.317 146.671L212.598 146.883C208.879 148.024 205.202 148.531 201.567 148.573C200.172 148.573 198.777 148.531 197.425 148.404C188.084 147.559 179.42 143.459 172.361 137.838C169.91 135.894 167.67 133.78 165.641 131.54L172.657 125.623L187.197 113.366L194.297 107.364C196.284 109.393 198.566 111.464 201.06 113.493C204.99 116.705 209.555 119.706 214.627 121.988C215.937 122.58 217.29 123.129 218.684 123.594C220.756 124.313 222.953 124.904 225.151 125.327C228.575 125.961 234.788 125.708 238.634 125.369C238.93 125.412 239.31 125.412 239.606 125.369Z" fill="#F0F4D7"/>
<path d="M126.63 23.5091L93.663 51.3199C93.663 51.3199 81.2792 37.7949 62.3442 36.2311C56.892 35.7661 50.9325 36.3156 44.5504 38.4711C38.2106 40.5844 31.4481 44.2615 24.4743 50.1364C24.0094 50.5168 23.5867 50.8972 23.1218 51.2776L22.995 51.1085L56.8074 22.6638L56.892 22.7483C57.061 22.5793 57.2724 22.4525 57.4414 22.2834C96.0299 -9.96519 126.63 23.5091 126.63 23.5091Z" fill="white"/>
<path opacity="0.6" d="M126.63 23.5091L93.663 51.3199C93.663 51.3199 81.2792 37.7949 62.3442 36.2311C56.892 35.7661 50.9325 36.3156 44.5504 38.4711C38.2106 40.5844 31.4481 44.2615 24.4743 50.1364C24.0094 50.5168 23.5867 50.8972 23.1218 51.2776L22.995 51.1085L56.8074 22.6638L56.892 22.7483C57.061 22.5793 57.2724 22.4525 57.4414 22.2834C96.0299 -9.96519 126.63 23.5091 126.63 23.5091Z" fill="url(#paint12_radial_126_13663)"/>
<path opacity="0.5" d="M126.63 23.5091L93.663 51.3199C93.663 51.3199 81.2792 37.7949 62.3442 36.2311C56.892 35.7661 50.9325 36.3156 44.5504 38.4711C38.2106 40.5844 31.4481 44.2615 24.4743 50.1364C24.0094 50.5168 23.5867 50.8972 23.1218 51.2776L22.995 51.1085L56.8074 22.6638L56.892 22.7483C57.061 22.5793 57.2724 22.4525 57.4414 22.2834C96.0299 -9.96519 126.63 23.5091 126.63 23.5091Z" fill="url(#paint13_linear_126_13663)"/>
<path opacity="0.2" d="M126.63 23.5091L93.663 51.3199C93.663 51.3199 81.2792 37.7949 62.3442 36.2311C56.892 35.7661 50.9325 36.3156 44.5504 38.4711C38.2106 40.5844 31.4481 44.2615 24.4743 50.1364C24.0094 50.5168 23.5867 50.8972 23.1218 51.2776L22.995 51.1085L56.8074 22.6638L56.892 22.7483C57.061 22.5793 57.2724 22.4525 57.4414 22.2834C96.0299 -9.96519 126.63 23.5091 126.63 23.5091Z" fill="url(#paint14_linear_126_13663)"/>
<path d="M126.63 23.5091L93.663 51.3199C93.663 51.3199 81.2792 37.7949 62.3442 36.2311C56.892 35.7661 50.9325 36.3156 44.5504 38.4711C38.2106 40.5844 31.4481 44.2615 24.4743 50.1364C24.0094 50.5168 23.5867 50.8972 23.1218 51.2776L22.995 51.1085L56.8074 22.6638L56.892 22.7483C57.061 22.5793 57.2724 22.4525 57.4414 22.2834C96.0299 -9.96519 126.63 23.5091 126.63 23.5091Z" fill="url(#paint15_linear_126_13663)"/>
<path d="M44.5927 38.4292C42.2258 43.6279 41.2959 48.8265 41.3382 53.8984C41.3805 56.7302 41.7186 59.5197 42.3103 62.2247L9.34319 90.12C6.68046 77.9052 8.79373 63.9576 23.1218 51.2779C23.5444 50.8975 24.0093 50.5171 24.4743 50.1368C31.4903 44.2618 38.2528 40.5425 44.5927 38.4292Z" fill="#847793"/>
<path opacity="0.8" d="M44.5927 38.4292C42.2258 43.6279 41.2959 48.8265 41.3382 53.8984C41.3805 56.7302 41.7186 59.5197 42.3103 62.2247L9.34319 90.12C6.68046 77.9052 8.79373 63.9576 23.1218 51.2779C23.5444 50.8975 24.0093 50.5171 24.4743 50.1368C31.4903 44.2618 38.2528 40.5425 44.5927 38.4292Z" fill="url(#paint16_linear_126_13663)"/>
<path opacity="0.3" d="M44.5927 38.4292C42.2258 43.6279 41.2959 48.8265 41.3382 53.8984C41.3805 56.7302 41.7186 59.5197 42.3103 62.2247L9.34319 90.12C6.68046 77.9052 8.79373 63.9576 23.1218 51.2779C23.5444 50.8975 24.0093 50.5171 24.4743 50.1368C31.4903 44.2618 38.2528 40.5425 44.5927 38.4292Z" fill="url(#paint17_linear_126_13663)"/>
<path d="M174.475 129.004C175.447 132.259 174.559 135.598 172.404 137.922C169.952 135.978 167.712 133.865 165.683 131.625L172.7 125.708C173.46 126.637 174.094 127.736 174.475 129.004Z" fill="#9CC61A"/>
<path d="M201.017 113.577C199.918 114.803 198.481 115.733 196.833 116.282C193.241 117.381 189.479 116.155 187.197 113.45L194.297 107.449C196.241 109.435 198.524 111.548 201.017 113.577Z" fill="#9CC61A"/>
<path d="M257.907 98.066C259.386 102.927 256.639 108.041 251.778 109.52C250.637 109.858 249.496 109.985 248.397 109.9C248.693 108.421 248.862 106.942 248.989 105.42C249.116 103.856 249.158 102.293 249.158 100.686L256.343 95.1074C257.019 95.9527 257.569 96.9671 257.907 98.066Z" fill="#8EA314"/>
<path d="M276.673 79.3423C276.25 82.3854 275.489 85.344 274.39 88.2181C272.446 87.7109 270.671 86.5697 269.445 84.9636L276.673 79.3423Z" fill="#8EA314"/>
<path d="M238.592 125.454C238.761 125.665 238.93 125.876 239.099 126.088C239.268 125.834 239.437 125.581 239.606 125.369C239.31 125.411 238.93 125.411 238.592 125.454ZM208.583 126.637C201.525 133.146 197.636 141.346 197.467 148.488C198.82 148.615 200.214 148.658 201.609 148.658C201.144 142.402 204.441 134.879 210.781 129.046C213.232 126.764 215.895 124.989 218.642 123.721C217.247 123.256 215.895 122.706 214.585 122.115C212.514 123.34 210.485 124.862 208.583 126.637Z" fill="#9CC61A"/>
<path d="M241.717 121.936C236.18 123.416 230.897 123.458 225.909 122.528C212.469 120.077 201.395 110.609 194.802 103.551L161.877 131.404C173.331 143.619 198.099 163.018 225.487 140.914C225.952 140.533 226.416 140.153 226.839 139.772C233.813 133.855 238.589 127.811 241.717 121.936Z" fill="url(#paint18_linear_126_13663)"/>
<path d="M240.449 121.936C234.912 123.416 229.629 123.458 224.641 122.528C211.201 120.077 200.127 110.609 193.534 103.551L160.609 131.404C172.063 143.619 196.831 163.018 224.219 140.914C224.684 140.533 225.148 140.153 225.571 139.772C232.545 133.855 237.321 127.811 240.449 121.936Z" fill="url(#paint19_linear_126_13663)"/>
<path opacity="0.4" d="M279.589 73.8901C279.505 85.5132 274.813 99.1649 259.428 112.352C259.259 112.521 259.048 112.69 258.879 112.817L258.921 112.901L225.109 141.346C225.574 140.966 226.039 140.585 226.461 140.205C233.393 134.288 238.169 128.244 241.339 122.326C244.509 116.409 246.03 110.577 246.495 105.167C246.664 103.222 246.706 101.32 246.622 99.4608L279.589 73.8901Z" fill="url(#paint20_linear_126_13663)"/>
<path opacity="0.8" d="M279.589 73.8901C279.505 85.5132 274.813 99.1649 259.428 112.352C259.259 112.521 259.048 112.69 258.879 112.817L258.921 112.901L225.109 141.346C225.574 140.966 226.039 140.585 226.461 140.205C233.393 134.288 238.169 128.244 241.339 122.326C244.509 116.409 246.03 110.577 246.495 105.167C246.664 103.222 246.706 101.32 246.622 99.4608L279.589 73.8901Z" fill="url(#paint21_linear_126_13663)"/>
<path d="M147.509 105.251C146.368 106.266 144.635 106.139 143.663 104.998L140.451 101.363C139.437 100.222 139.563 98.4888 140.704 97.5167L165.726 75.5809C166.867 74.5665 168.6 74.6933 169.572 75.8345L172.784 79.4693C173.798 80.6105 173.672 82.3434 172.53 83.3155L147.509 105.251Z" fill="white"/>
<path d="M172.235 83.0192L147.213 104.955C146.241 105.8 144.762 105.716 143.917 104.744L140.705 101.109C139.859 100.137 139.944 98.6574 140.916 97.8121L165.937 75.8763C166.909 75.031 168.388 75.1155 169.234 76.0876L172.446 79.7224C173.291 80.6946 173.207 82.1738 172.235 83.0192Z" fill="#F3E5E4"/>
<path opacity="0.2" d="M169.234 76.0879L172.446 79.7227C172.995 80.3567 173.164 81.2443 172.911 82.0051C172.826 81.6247 172.657 81.2443 172.361 80.9484L169.149 77.3136C168.304 76.3415 166.825 76.2569 165.852 77.1023L140.831 99.0381C140.493 99.3339 140.282 99.6721 140.155 100.052C139.986 99.2494 140.24 98.4041 140.916 97.8546L165.937 75.9188C166.951 75.0312 168.388 75.1158 169.234 76.0879Z" fill="#231F20"/>
<path d="M145.895 102.703C145.099 103.402 144.007 103.356 143.324 102.578C142.641 101.8 142.737 100.711 143.538 100.009C143.944 99.6529 144.419 99.482 144.897 99.5415L144.86 99.9926C144.47 99.9565 144.136 100.076 143.846 100.33C143.253 100.851 143.189 101.666 143.7 102.248C144.211 102.831 145.027 102.873 145.621 102.352C145.91 102.098 146.069 101.779 146.084 101.387L146.536 101.409C146.533 101.891 146.305 102.344 145.895 102.703ZM147.356 101.368L144.909 98.5798L145.27 98.2633L147.717 101.052L147.356 101.368ZM147.367 97.8003C147.912 97.3221 148.451 97.3148 148.929 97.8597L149.984 99.0623L149.642 99.3623L149.411 99.0993C149.449 99.3852 149.32 99.685 149.008 99.9587C148.557 100.354 148.06 100.365 147.757 100.019C147.477 99.6993 147.452 99.2549 148.046 98.7339L148.618 98.2326L148.555 98.1612C148.288 97.8568 147.956 97.8352 147.599 98.1485C147.362 98.3562 147.194 98.6499 147.156 98.9167L146.768 98.778C146.829 98.4313 147.047 98.0806 147.367 97.8003ZM148.824 99.6278C149.095 99.3904 149.2 99.0784 149.089 98.77L148.845 98.4919L148.289 98.98C147.932 99.2933 147.952 99.5214 148.101 99.6905C148.276 99.8896 148.55 99.8686 148.824 99.6278ZM148.748 95.943C148.609 96.065 148.415 96.0559 148.299 95.9244C148.184 95.7928 148.197 95.5953 148.336 95.4733C148.475 95.3512 148.669 95.3604 148.781 95.4882C148.9 95.6234 148.891 95.8177 148.748 95.943ZM150.652 98.4764L148.904 96.4846L149.265 96.1681L151.013 98.1598L150.652 98.4764ZM152.429 93.3584C152.914 92.933 153.489 92.9209 154.003 93.5072L155.009 94.6534L154.648 94.97L153.679 93.8651C153.336 93.4743 152.979 93.4475 152.652 93.7344C152.292 94.051 152.256 94.488 152.635 94.9201L153.536 95.9461L153.175 96.2627L152.205 95.1578C151.862 94.767 151.506 94.7402 151.179 95.0271C150.818 95.3437 150.783 95.7807 151.162 96.2128L152.062 97.2388L151.702 97.5554L149.954 95.5636L150.299 95.2602L150.56 95.5571C150.525 95.2288 150.67 94.9018 150.971 94.6379C151.275 94.3708 151.636 94.2668 151.985 94.3995C151.938 94.0421 152.091 93.6552 152.429 93.3584ZM158.903 91.2363L158.494 91.5958L157.217 91.2858C157.168 91.3357 157.115 91.3889 157.058 91.4384L156.408 92.0089L157.111 92.8093L156.735 93.1391L154.426 90.5085L155.452 89.6082C156.136 89.008 156.853 88.991 157.354 89.5622C157.711 89.9681 157.757 90.4459 157.504 90.9006L158.903 91.2363ZM156.767 91.1288C157.248 90.7067 157.308 90.2678 156.979 89.892C156.649 89.5162 156.209 89.5229 155.728 89.945L155.089 90.5057L156.128 91.6894L156.767 91.1288ZM160.349 88.2251C160.375 88.2552 160.411 88.3036 160.437 88.3407L158.821 89.7587C159.173 90.0686 159.659 90.0543 160.054 89.708C160.287 89.5036 160.413 89.2532 160.418 88.963L160.822 89.0212C160.826 89.3899 160.65 89.7434 160.32 90.0336C159.677 90.5975 158.876 90.5488 158.355 89.955C157.837 89.365 157.889 88.5677 158.464 88.0631C159.039 87.5586 159.811 87.6125 160.349 88.2251ZM158.731 88.3675C158.385 88.6709 158.334 89.1282 158.594 89.4994L159.871 88.3782C159.54 88.0767 159.081 88.0609 158.731 88.3675ZM162.62 84.4494L162.944 84.1658L163.947 86.8105L163.602 87.1139L161.701 86.1077L162.444 88.1296L162.098 88.433L159.61 87.0908L159.952 86.7908L161.923 87.8688L161.132 85.7553L161.437 85.4882L163.425 86.5638L162.62 84.4494ZM163.956 83.2441C164.501 82.7659 165.04 82.7585 165.518 83.3035L166.574 84.506L166.232 84.8061L166.001 84.5431C166.039 84.829 165.91 85.1288 165.598 85.4025C165.147 85.7982 164.65 85.8083 164.347 85.4626C164.066 85.1431 164.042 84.6987 164.636 84.1777L165.207 83.6764L165.145 83.605C164.877 83.3006 164.546 83.279 164.189 83.5922C163.952 83.8 163.784 84.0937 163.745 84.3605L163.357 84.2218C163.419 83.8751 163.637 83.5244 163.956 83.2441ZM165.414 85.0716C165.684 84.8342 165.79 84.5222 165.679 84.2138L165.435 83.9357L164.878 84.4238C164.521 84.7371 164.542 84.9651 164.69 85.1342C164.865 85.3334 165.139 85.3123 165.414 85.0716ZM166.133 81.9595C166.056 81.6144 166.199 81.2765 166.548 80.9698L166.855 81.3193C166.822 81.3419 166.795 81.365 166.769 81.3881C166.382 81.7277 166.349 82.1755 166.732 82.6115L167.602 83.6036L167.242 83.9202L165.494 81.9284L165.839 81.625L166.133 81.9595ZM167.81 78.4855L168.171 78.1689L170.618 80.9574L170.272 81.2608L169.995 80.9451C170.032 81.3124 169.875 81.6494 169.582 81.9066C168.999 82.4177 168.215 82.3808 167.681 81.772C167.147 81.1632 167.215 80.3846 167.798 79.8735C168.08 79.6262 168.42 79.5138 168.773 79.5829L167.81 78.4855ZM169.335 81.5645C169.715 81.2315 169.76 80.6995 169.387 80.2748C169.015 79.8501 168.484 79.8297 168.105 80.1628C167.721 80.4992 167.673 81.0274 168.045 81.4521C168.418 81.8767 168.952 81.9009 169.335 81.5645Z" fill="#471C70"/>
<g opacity="0.5">
<path d="M126.63 23.5097L124.559 25.2426C120.375 21.1429 100.299 3.51813 73.5023 12.1826C104.187 -1.04655 126.63 23.5097 126.63 23.5097Z" fill="white"/>
</g>
<path d="M227.561 139.275C227.476 139.36 227.434 139.403 227.349 139.445C227.434 139.36 227.519 139.275 227.603 139.233C227.561 139.275 227.561 139.275 227.561 139.275Z" fill="white"/>
<path opacity="0.2" d="M238.084 95.53L238.296 99.841C238.38 101.405 238.338 102.969 238.211 104.448C237.915 107.998 237.028 111.549 235.633 114.972C232.801 115.31 229.969 115.268 227.095 114.719C218.473 113.155 210.823 107.745 205.624 103.18C207.104 99.038 206.301 94.3888 203.384 90.9653L140.747 16.9583C137.535 13.1544 132.378 11.6328 127.644 13.0699C127.602 13.0699 127.602 13.0699 127.56 13.1121C127.475 13.0699 127.433 12.9853 127.391 12.9431C125.066 10.9989 122.573 9.22371 119.952 7.70215C114.584 4.53223 108.836 2.29215 102.792 1.10872C93.9166 -0.708699 84.6604 -0.286043 76.0383 2.33442C74.0518 2.92614 72.0653 3.64465 70.2056 4.48996C66.2327 6.22285 62.2174 8.42066 58.329 11.1257L58.0331 10.7453L11.2875 50.0522L11.8792 50.7707C7.14543 56.223 3.76419 62.1824 1.86224 68.48C-0.377838 75.8765 -0.589167 83.7801 1.18599 91.9374L4.14457 105.505L51.5243 65.3946L50.4676 60.4918C49.9604 58.2095 49.7068 55.9694 49.6646 53.8139C49.6223 50.8975 50.045 48.0657 50.848 45.3607C54.4406 44.5577 58.0754 44.2618 61.6257 44.5577C69.8252 45.234 76.6723 48.742 81.3637 51.9542C78.9123 56.3921 79.3773 62.0134 82.7585 65.9863L145.354 139.951C147.763 142.825 151.313 144.431 155.033 144.389C156.174 144.389 157.357 144.178 158.456 143.839C159.259 143.586 160.02 143.29 160.781 142.867C170.798 151.828 189.775 164.55 211.922 157.829C218.22 155.927 224.39 152.546 230.223 147.855C230.477 147.643 230.73 147.474 230.942 147.263C230.942 147.263 231.491 146.798 231.618 146.714L231.914 146.629L233.013 145.53L270.502 114.042L270.206 113.662C281.829 101.87 287.789 88.5139 287.873 73.9745L288 56.7724L238.084 95.53ZM285.887 73.9745C285.76 88.5139 279.589 101.828 267.501 113.535L267.713 113.789L231.702 144.009L230.899 144.812L230.688 144.896C230.646 144.938 230.603 144.981 230.561 145.023C230.392 145.192 230.223 145.319 230.012 145.446L229.674 145.699C229.462 145.868 229.251 146.08 228.997 146.249C223.376 150.771 217.417 154.025 211.373 155.843C189.606 162.436 170.967 149.503 161.077 140.247C160.104 140.965 159.048 141.473 157.949 141.811C157.019 142.107 156.089 142.233 155.117 142.233C151.989 142.276 149.073 140.965 147.044 138.556L84.4068 64.6338C81.1524 60.7877 81.1947 55.2086 84.2801 51.4047C79.6308 47.8967 71.6849 43.2475 61.8793 42.4444C57.695 42.1063 53.4685 42.4867 49.2842 43.5433C48.143 46.7978 47.5936 50.2636 47.6358 53.7716C47.6781 56.0539 47.9317 58.4208 48.4811 60.8722L49.2842 64.5493L5.45481 101.658L3.257 91.4725C1.56638 83.6533 1.7777 76.1301 3.89098 69.0717C5.8352 62.5628 9.47003 56.4343 14.6264 50.813L14.2038 50.3058L57.695 13.7039L57.9064 13.9574C62.2174 10.8298 66.6131 8.29386 71.0087 6.39191C72.8261 5.58887 74.6858 4.91262 76.63 4.3209C84.914 1.82724 93.7898 1.40458 102.327 3.13747C108.118 4.3209 113.697 6.47644 118.853 9.51956C121.389 10.9989 123.798 12.6895 125.996 14.5914C126.165 14.7182 126.377 14.9296 127.053 15.5213C127.433 15.3522 127.814 15.2254 128.194 15.0986C132.167 13.9152 136.436 15.1831 139.098 18.3108L201.694 92.3178C204.399 95.53 204.864 100.095 203.004 103.729C208.668 108.97 217.036 115.014 226.63 116.79C230.096 117.424 233.604 117.466 236.985 116.874C238.761 112.943 239.817 108.801 240.198 104.659C240.324 103.053 240.367 101.405 240.282 99.7565L240.155 96.5021L285.929 61.0413L285.887 73.9745Z" fill="white"/>
<path opacity="0.3" d="M240.198 96.5019L240.324 99.7563C240.409 101.405 240.367 103.053 240.24 104.659C239.902 108.843 238.803 112.943 237.028 116.874C233.604 117.466 230.138 117.423 226.673 116.789C217.078 115.014 208.71 108.97 203.046 103.729C204.906 100.052 204.483 95.5298 201.736 92.3176L139.141 18.3106C136.478 15.1407 132.209 13.8727 128.236 15.0984C127.856 15.2252 127.475 15.352 127.095 15.5211C126.419 14.8871 126.207 14.7181 126.038 14.5913C123.798 12.7316 121.389 11.041 118.895 9.5194C113.739 6.47628 108.202 4.32073 102.37 3.1373C93.832 1.40441 84.9563 1.82707 76.6722 4.32074C74.728 4.91245 72.8683 5.5887 71.0509 6.39174C66.6553 8.29369 62.2597 10.8296 57.9486 13.9573L57.7372 13.7037L14.246 50.3057L14.6687 50.8128C9.47 56.3919 5.83516 62.5204 3.89095 69.0715C1.77767 76.1299 1.56634 83.6532 3.25696 91.4723L5.45477 101.658L49.2419 64.5914L48.4388 60.9143C47.9316 58.5052 47.6358 56.096 47.5935 53.8137C47.5513 50.2634 48.1007 46.8399 49.2419 43.5854C53.4262 42.4865 57.6527 42.1061 61.837 42.4865C71.6849 43.2896 79.5885 47.981 84.2377 51.4468C81.1524 55.2085 81.1101 60.7875 84.3645 64.6759L146.96 138.641C148.989 141.05 151.905 142.36 155.033 142.318C156.005 142.318 156.934 142.149 157.864 141.895C159.005 141.557 160.062 141.008 160.992 140.331C170.882 149.587 189.521 162.478 211.288 155.927C217.332 154.11 223.291 150.855 228.913 146.333C229.124 146.164 229.378 145.953 229.589 145.784L229.927 145.53C230.096 145.403 230.265 145.234 230.477 145.107C230.519 145.065 230.561 145.023 230.603 144.98L230.815 144.896L231.618 144.093L267.586 113.831L267.374 113.577C279.462 101.87 285.675 88.556 285.76 74.0166L285.844 61.1256L240.198 96.5019ZM283.773 73.9321C283.689 88.4292 277.222 101.701 264.627 113.324L264.754 113.493L230.265 142.487L229.758 142.994L229.631 143.036C229.504 143.163 229.335 143.29 229.209 143.417C229.039 143.543 228.87 143.712 228.701 143.839L228.321 144.093C228.11 144.262 227.898 144.431 227.687 144.6C222.235 148.996 216.571 152.081 210.739 153.856C189.268 160.365 170.924 147.009 161.161 137.499L160.823 137.795L160.273 138.26C159.386 138.979 158.414 139.528 157.315 139.866C156.596 140.078 155.836 140.204 155.033 140.204C152.539 140.247 150.214 139.19 148.608 137.288L86.0129 63.3234C83.0966 59.8577 83.5192 54.6167 86.985 51.7004L87.4499 51.2778C82.843 47.4739 73.7559 41.3876 62.0483 40.4155C57.2723 40.0351 52.4541 40.5 47.7203 41.8948C46.241 45.6987 45.5225 49.7139 45.5648 53.8982C45.607 56.3074 45.9029 58.8433 46.4523 61.4215L47.0018 63.8729L6.84954 97.8544L5.37024 91.0496C3.76415 83.6109 3.93321 76.4258 5.96196 69.7055C7.99071 62.943 11.8791 56.6877 17.5005 50.9819L17.2469 50.6438L57.5259 16.7468L57.6527 16.8736C62.3442 13.281 67.1625 10.407 71.9807 8.33596C73.7136 7.57518 75.531 6.89893 77.3907 6.34948C85.3366 3.94034 93.8743 3.55995 102.074 5.20831C107.653 6.34948 112.978 8.37823 117.923 11.3368C120.333 12.7738 122.657 14.3799 124.813 16.1974C124.982 16.3242 125.278 16.5777 126.292 17.5498C126.461 17.7189 126.672 17.888 126.884 18.0993C127.518 17.6766 128.194 17.3808 128.955 17.1272C132.125 16.1551 135.506 17.1695 137.661 19.7054L200.257 93.7124C202.835 96.7555 202.835 101.109 200.468 104.11C206.639 110.069 215.768 116.916 226.377 118.86C230.477 119.621 234.576 119.579 238.549 118.734C240.705 114.253 241.973 109.604 242.395 104.828C242.522 103.138 242.564 101.405 242.48 99.6718L242.395 97.5163L283.9 65.3522L283.773 73.9321Z" fill="white"/>
<path opacity="0.4" d="M242.353 97.5163L242.438 99.6718C242.522 101.405 242.48 103.138 242.353 104.828C241.931 109.604 240.663 114.253 238.507 118.734C234.492 119.579 230.434 119.579 226.335 118.86C215.726 116.916 206.597 110.027 200.426 104.11C202.75 101.109 202.75 96.7132 200.215 93.7124L137.535 19.6632C135.421 17.1272 131.998 16.1551 128.828 17.085C128.067 17.2963 127.391 17.6344 126.757 18.0571C126.546 17.8458 126.334 17.6767 126.165 17.5076C125.109 16.5778 124.855 16.3242 124.686 16.1551C122.53 14.38 120.248 12.7316 117.797 11.2946C112.852 8.37827 107.484 6.30726 101.947 5.16609C93.7476 3.51773 85.2099 3.89812 77.264 6.30726C75.4043 6.85671 73.5869 7.53296 71.854 8.29374C67.0358 10.3647 62.2175 13.2388 57.526 16.8314L57.3992 16.7046L17.1202 50.6016L17.3737 50.9397C11.7524 56.6455 7.864 62.9431 5.83525 69.6633C3.8065 76.3835 3.59518 83.5687 5.24353 91.0074L6.72283 97.8122L46.8751 63.8307L46.3256 61.3793C45.7762 58.8433 45.4803 56.3074 45.4381 53.856C45.3958 49.714 46.1143 45.6565 47.5936 41.8526C52.3273 40.5001 57.1879 39.9929 61.9216 40.3733C73.6292 41.3454 82.7163 47.4739 87.3232 51.2355L86.8583 51.6582C83.3925 54.6168 82.9699 59.8154 85.8862 63.2812L148.481 137.246C150.088 139.148 152.454 140.205 154.906 140.162C155.667 140.162 156.427 140.035 157.188 139.824C158.287 139.486 159.259 138.979 160.147 138.218L160.696 137.753L161.034 137.457C170.798 146.967 189.141 160.323 210.612 153.814C216.402 152.081 222.108 148.953 227.56 144.558C227.772 144.389 227.983 144.22 228.194 144.051L228.532 143.755C228.701 143.628 228.871 143.501 229.04 143.332C229.209 143.205 229.335 143.079 229.462 142.952L229.589 142.91L230.096 142.402L264.585 113.408L264.458 113.239C277.053 101.616 283.478 88.3447 283.604 73.8476L283.647 65.2254L242.353 97.5163ZM281.702 73.9321C281.618 88.3869 274.898 101.574 261.795 113.112L261.88 113.197L228.913 140.923L228.701 141.134H228.659C228.659 141.134 228.406 141.346 228.321 141.43C228.194 141.557 228.067 141.684 227.898 141.768C227.729 141.895 227.56 142.022 227.434 142.149L227.095 142.445C226.884 142.614 226.715 142.783 226.504 142.952C221.263 147.178 215.81 150.179 210.274 151.828C189.099 158.21 171.051 144.473 161.415 134.625L159.597 136.105L159.006 136.612C158.372 137.161 157.611 137.584 156.808 137.795C156.258 137.964 155.709 138.049 155.117 138.049C153.257 138.091 151.482 137.288 150.299 135.851L87.5768 61.9287C85.379 59.3083 85.7171 55.4198 88.2953 53.222L90.5777 51.1933C86.816 47.7275 76.3342 39.4012 62.1752 38.26C56.9766 37.8374 51.6934 38.4291 46.4947 39.9929C46.3679 40.0352 46.2411 40.0774 46.1143 40.1197C44.2546 44.473 43.3671 49.08 43.4093 53.856C43.4516 56.4342 43.7474 59.0969 44.3392 61.7597L44.5928 62.9854L8.03306 93.9237L7.31454 90.5425C5.75072 83.4419 5.96205 76.5949 7.864 70.255C9.93501 63.3235 14.1193 56.8568 20.2478 51.0665L20.0787 50.8551L57.1034 19.7054L57.1879 19.79C62.2598 15.6902 67.4584 12.478 72.6571 10.238C74.3054 9.51944 76.0806 8.88546 77.8135 8.336C85.4213 6.0114 93.6208 5.67327 101.482 7.2371C106.808 8.336 111.964 10.2802 116.698 13.112C119.022 14.4645 121.22 16.0706 123.291 17.7612C123.418 17.888 123.798 18.2261 124.728 19.0715C125.235 19.5364 125.996 20.2126 126.63 20.7621C126.968 20.4662 127.222 20.2549 127.222 20.2549C127.856 19.7477 128.574 19.325 129.377 19.0715C131.744 18.3529 134.28 19.1137 135.886 21.0157L198.482 95.0226C200.679 97.6008 200.341 101.489 197.805 103.687L197.34 104.11C204.018 110.872 213.993 118.734 225.827 120.931C230.519 121.777 235.253 121.692 239.817 120.593C242.353 115.606 243.833 110.407 244.297 105.04C244.467 103.264 244.467 101.447 244.424 99.5873L244.382 98.4884L281.618 69.621L281.702 73.9321Z" fill="white"/>
<path d="M244.509 99.5877C244.593 101.405 244.551 103.265 244.382 105.04C243.917 110.408 242.396 115.606 239.902 120.594C235.337 121.693 230.603 121.819 225.912 120.932C214.078 118.776 204.103 110.915 197.425 104.11L197.89 103.687C200.468 101.49 200.764 97.6012 198.566 95.023L135.971 21.016C134.365 19.1141 131.829 18.3956 129.462 19.0718C128.659 19.3254 127.898 19.7058 127.306 20.2552C127.306 20.2552 127.053 20.4666 126.715 20.7624C126.081 20.213 125.32 19.5367 124.813 19.0718C123.883 18.2265 123.503 17.8884 123.376 17.7616C121.305 16.0287 119.107 14.4649 116.782 13.1124C112.006 10.3228 106.892 8.33636 101.567 7.23746C93.7054 5.63137 85.5058 6.01176 77.898 8.33636C76.1229 8.88582 74.39 9.5198 72.7416 10.2383C67.5007 12.4784 62.302 15.6906 57.2724 19.7903L57.1879 19.7058L20.1633 50.8555L20.3324 51.0668C14.2039 56.8572 10.0196 63.3238 7.94855 70.2554C6.0466 76.6375 5.83528 83.4422 7.3991 90.5428L8.11762 93.9241L44.6773 62.9857L44.4237 61.76C43.832 59.055 43.5361 56.3923 43.4939 53.8564C43.4516 49.0804 44.3392 44.4311 46.1989 40.1201C46.3257 40.0778 46.4525 40.0355 46.5793 39.9933C51.7779 38.4294 57.0189 37.8377 62.2598 38.2604C76.4187 39.4438 86.9006 47.7701 90.6622 51.1936L88.3799 53.2224C85.8017 55.4202 85.4636 59.3086 87.6614 61.9291L150.257 135.894C151.44 137.331 153.215 138.134 155.075 138.092C155.667 138.092 156.216 138.007 156.766 137.838C157.569 137.584 158.329 137.204 158.963 136.655L159.555 136.147L161.372 134.668C171.009 144.474 189.056 158.252 210.231 151.87C215.768 150.18 221.263 147.221 226.461 142.994C226.673 142.825 226.842 142.656 227.053 142.487L227.391 142.191C227.56 142.065 227.729 141.938 227.856 141.811C227.983 141.684 228.152 141.557 228.279 141.473C228.363 141.388 228.617 141.177 228.617 141.177H228.659L228.871 140.966L261.838 113.239L261.753 113.155C274.855 101.616 281.576 88.4296 281.66 73.9748L281.702 69.6637L244.467 98.5311L244.509 99.5877ZM279.589 73.8902C279.505 85.5133 274.813 99.165 259.429 112.352C259.259 112.521 259.048 112.69 258.879 112.817L258.921 112.901L227.18 139.571C226.926 139.782 226.715 139.994 226.461 140.163C226.25 140.332 226.039 140.501 225.827 140.67C225.574 140.881 225.32 141.092 225.067 141.304C197.636 163.409 172.911 144.009 161.457 131.794L158.16 134.499L157.569 135.006C156.808 135.64 155.92 135.978 154.99 135.978C153.807 136.021 152.624 135.513 151.778 134.541L89.1829 60.6188C87.7459 58.886 87.9572 56.3078 89.6479 54.8707L93.6631 51.3627C93.6631 51.3627 81.2793 37.8377 62.3443 36.2739C56.8921 35.809 50.9326 36.3584 44.5505 38.514C42.1836 43.7126 41.2538 48.9113 41.2961 53.9832C41.3383 56.8149 41.6765 59.6045 42.2682 62.3095L9.30105 90.2047C7.94855 84.0762 7.82176 77.5251 9.80824 70.9316C11.7947 64.3382 15.8945 57.6603 23.0796 51.3204L22.9528 51.1514L56.7653 22.7067L56.8498 22.7912C57.0189 22.6221 57.2302 22.4531 57.3992 22.3263C62.936 17.677 68.3038 14.4226 73.4602 12.1825C82.0823 8.4209 91.8457 7.44879 101.06 9.30847C106.174 10.3651 111.119 12.2671 115.641 14.9298C117.881 16.24 119.995 17.7193 121.939 19.4099C122.319 19.7058 126.503 23.552 126.546 23.5097L128.532 21.9036C130.265 20.4666 132.843 20.6779 134.28 22.3685L196.876 96.3755C198.355 98.1084 198.144 100.687 196.411 102.124L194.34 103.983C200.975 111.042 212.007 120.467 225.447 122.961C230.434 123.848 235.718 123.806 241.254 122.369C244.424 116.452 245.946 110.619 246.411 105.209C246.58 103.265 246.622 101.363 246.538 99.5032L279.589 73.8902Z" fill="white"/>
<path d="M228.448 138.472C228.533 138.387 228.575 138.345 228.66 138.26C228.618 138.303 228.575 138.345 228.49 138.387C228.49 138.43 228.448 138.472 228.448 138.472Z" fill="white"/>
<path opacity="0.4" d="M279.589 70.0015C279.505 81.6245 274.813 95.2763 259.428 108.463C259.259 108.632 259.048 108.801 258.879 108.928L258.921 109.013L225.109 137.457C225.574 137.077 226.039 136.696 226.461 136.316C233.393 130.399 238.169 124.355 241.339 118.438C244.509 112.521 246.03 106.688 246.495 101.278C246.664 99.3338 246.706 97.4318 246.622 95.5721L279.589 70.0015Z" fill="url(#paint22_linear_126_13663)"/>
<g filter="url(#filter0_d_126_13663)">
<path d="M108.574 65.401L113.641 61.0608L124.57 73.8201L122.2 75.8497L112.973 65.0772L110.275 67.3879L108.574 65.401ZM132.579 67.2756C129.554 69.8672 125.227 69.4648 121.636 65.2725C118.045 61.0801 118.312 56.7433 121.338 54.1516C124.382 51.5443 128.709 51.9468 132.3 56.1391C135.89 60.3315 135.623 64.6683 132.579 67.2756ZM130.815 65.2158C132.565 63.717 132.55 61.2648 129.912 58.1844C127.273 55.1039 124.852 54.7126 123.103 56.2114C121.371 57.6946 121.386 60.1468 124.024 63.2272C126.663 66.3077 129.083 66.699 130.815 65.2158ZM144.844 56.7706C141.818 59.3623 137.492 58.9599 133.901 54.7675C130.31 50.5752 130.577 46.2384 133.603 43.6467C136.647 41.0394 140.973 41.4418 144.564 45.6342C148.155 49.8265 147.888 54.1633 144.844 56.7706ZM143.08 54.7109C144.829 53.2121 144.815 50.7599 142.176 47.6794C139.538 44.5989 137.117 44.2076 135.367 45.7064C133.635 47.1896 133.65 49.6418 136.289 52.7223C138.927 55.8028 141.348 56.1941 143.08 54.7109Z" fill="#FFAA00"/>
</g>
<g filter="url(#filter1_d_126_13663)">
<path d="M127.911 86.9898L124.268 82.7367L125.058 82.0602L128.701 86.3133L127.911 86.9898ZM128.809 80.5326C129.587 79.8664 130.544 79.8156 131.382 80.7938L132.974 82.653L132.215 83.3035L130.706 81.5415C130.211 80.9643 129.686 80.9294 129.2 81.3458C128.659 81.8089 128.576 82.4493 129.133 83.0994L130.538 84.7399L129.778 85.3904L126.999 82.1459L127.722 81.5266L128.081 81.9458C128.076 81.4347 128.335 80.9385 128.809 80.5326ZM131.106 78.3125C130.523 77.632 130.55 76.8398 131.304 76.1945C131.565 75.9707 131.867 75.8068 132.141 75.7826L132.418 76.5359C132.234 76.5558 132.042 76.626 131.884 76.7613C131.568 77.0319 131.555 77.3486 131.851 77.6949L132.018 77.8894L132.911 77.1244L133.432 77.7319L132.563 78.4761L134.8 81.0888L134.041 81.7393L131.803 79.1267L131.269 79.5846L130.748 78.977L131.283 78.5191L131.106 78.3125ZM132.318 75.3991L133.078 74.7486L136.939 79.2569L136.18 79.9074L132.318 75.3991ZM139.613 74.1858C139.665 74.2466 139.737 74.3429 139.793 74.421L137.248 76.6016C137.745 76.9974 138.4 76.963 138.965 76.479C139.329 76.1667 139.516 75.8067 139.544 75.372L140.352 75.4911C140.357 76.0873 140.057 76.6598 139.498 77.1386C138.411 78.0702 137.107 77.9751 136.28 77.0091C135.453 76.043 135.57 74.7415 136.536 73.914C137.484 73.1021 138.744 73.1711 139.613 74.1858ZM137.057 74.5216C136.564 74.9431 136.477 75.5661 136.81 76.1025L138.651 74.5256C138.189 74.1098 137.555 74.0948 137.057 74.5216ZM143.242 73.9325C142.215 74.812 140.892 74.7438 140.06 73.7717C139.227 72.7996 139.368 71.4885 140.395 70.609C141.027 70.0677 141.755 69.8971 142.425 70.1758L142.134 71.0157C141.674 70.8723 141.262 70.9824 140.94 71.2582C140.381 71.737 140.289 72.4902 140.825 73.116C141.366 73.7479 142.12 73.7664 142.679 73.2876C143.001 73.0117 143.173 72.6222 143.102 72.1458L143.976 71.9864C144.144 72.6859 143.873 73.3912 143.242 73.9325ZM146.412 69.9001L147.088 70.2587C147.031 70.5607 146.82 70.8678 146.546 71.102C145.835 71.7109 145.106 71.6828 144.491 70.9659L143.154 69.4044L142.619 69.8624L142.099 69.2548L142.634 68.7968L141.999 68.0555L142.758 67.405L143.393 68.1463L144.262 67.4021L144.782 68.0097L143.913 68.7539L145.235 70.2971C145.506 70.6131 145.81 70.6479 146.101 70.3981C146.259 70.2628 146.375 70.0901 146.412 69.9001ZM145.009 65.7927C144.73 66.0321 144.352 66.0086 144.133 65.7534C143.914 65.4982 143.949 65.1207 144.229 64.8814C144.508 64.642 144.876 64.6534 145.09 64.9025C145.318 65.1698 145.295 65.5481 145.009 65.7927ZM147.864 69.8998L145.085 66.6553L145.844 66.0048L148.623 69.2493L147.864 69.8998ZM151.115 67.189C150.118 68.0425 148.796 67.9743 147.963 67.0022C147.13 66.03 147.271 64.719 148.268 63.8655C149.276 63.0016 150.588 63.0689 151.42 64.041C152.253 65.0131 152.123 66.3251 151.115 67.189ZM150.558 66.5389C151.111 66.0653 151.185 65.3165 150.655 64.6967C150.124 64.077 149.372 64.0359 148.819 64.5095C148.273 64.9779 148.198 65.7267 148.729 66.3465C149.259 66.9662 150.011 67.0072 150.558 66.5389ZM152.567 60.1834C153.344 59.5172 154.302 59.4664 155.139 60.4446L156.732 62.3038L155.972 62.9543L154.463 61.1923C153.969 60.6151 153.444 60.5802 152.958 60.9965C152.417 61.4597 152.333 62.1001 152.89 62.7502L154.295 64.3907L153.536 65.0412L150.757 61.7967L151.48 61.1774L151.839 61.5966C151.833 61.0855 152.093 60.5893 152.567 60.1834ZM142.738 87.562C141.438 88.6757 139.68 88.5909 138.592 87.321C137.505 86.0512 137.691 84.301 138.997 83.1821C139.69 82.5889 140.499 82.328 141.289 82.4515L141.19 83.3686C140.594 83.2998 140.071 83.4637 139.627 83.8436C138.746 84.5982 138.639 85.7644 139.388 86.6393C140.138 87.5142 141.306 87.5875 142.187 86.8329C142.631 86.453 142.873 85.9611 142.892 85.3554L143.818 85.4043C143.819 86.2044 143.437 86.9635 142.738 87.562ZM146.435 84.3638C145.439 85.2173 144.116 85.1492 143.284 84.177C142.451 83.2049 142.592 81.8938 143.588 81.0403C144.597 80.1764 145.908 80.2437 146.741 81.2158C147.574 82.188 147.444 83.4999 146.435 84.3638ZM145.878 83.7137C146.431 83.2401 146.506 82.4913 145.975 81.8716C145.444 81.2518 144.693 81.2108 144.14 81.6844C143.593 82.1527 143.518 82.9016 144.049 83.5213C144.58 84.141 145.331 84.1821 145.878 83.7137ZM146.002 78.109C145.723 78.3484 145.345 78.3248 145.126 78.0696C144.907 77.8144 144.942 77.437 145.222 77.1976C145.501 76.9582 145.869 76.9696 146.083 77.2187C146.312 77.4861 146.288 77.8644 146.002 78.109ZM148.857 82.216L146.078 78.9715L146.837 78.321L149.616 81.5655L148.857 82.216ZM149.644 75.8539C150.421 75.1877 151.378 75.1369 152.216 76.1151L153.809 77.9743L153.049 78.6248L151.54 76.8628C151.046 76.2856 150.521 76.2507 150.035 76.667C149.494 77.1302 149.41 77.7706 149.967 78.4207L151.372 80.0612L150.613 80.7117L147.834 77.4672L148.557 76.8479L148.916 77.2671C148.91 76.756 149.17 76.2598 149.644 75.8539ZM155.811 76.3329C155.27 76.7961 154.594 77.1013 154.126 77.1445L153.923 76.3175C154.37 76.2612 154.922 76.0202 155.329 75.6715C155.809 75.2604 155.895 74.955 155.702 74.7302C155.172 74.1104 153.666 76.4111 152.558 75.1169C152.032 74.5033 152.242 73.6287 153.116 72.8793C153.548 72.5098 154.128 72.1915 154.571 72.1179L154.774 72.945C154.308 73.0281 153.946 73.2327 153.636 73.4982C153.174 73.8937 153.086 74.2329 153.268 74.4456C153.83 75.1018 155.335 72.8011 156.423 74.071C156.943 74.6786 156.723 75.5523 155.811 76.3329Z" fill="#FFAA00"/>
</g>
<defs>
<filter id="filter0_d_126_13663" x="107.417" y="39.0723" width="42.7671" height="40.2705" filterUnits="userSpaceOnUse" color-interpolation-filters="sRGB">
<feFlood flood-opacity="0" result="BackgroundImageFix"/>
<feColorMatrix in="SourceAlpha" type="matrix" values="0 0 0 0 0 0 0 0 0 0 0 0 0 0 0 0 0 0 127 0" result="hardAlpha"/>
<feOffset dx="-1" dy="1"/>
<feComposite in2="hardAlpha" operator="out"/>
<feColorMatrix type="matrix" values="0 0 0 0 0.63141 0 0 0 0 0 0 0 0 0 0 0 0 0 1 0"/>
<feBlend mode="normal" in2="BackgroundImageFix" result="effect1_dropShadow_126_13663"/>
<feBlend mode="normal" in="SourceGraphic" in2="effect1_dropShadow_126_13663" result="shape"/>
</filter>
<filter id="filter1_d_126_13663" x="122.893" y="57.6133" width="40.3959" height="38.0322" filterUnits="userSpaceOnUse" color-interpolation-filters="sRGB">
<feFlood flood-opacity="0" result="BackgroundImageFix"/>
<feColorMatrix in="SourceAlpha" type="matrix" values="0 0 0 0 0 0 0 0 0 0 0 0 0 0 0 0 0 0 127 0" result="hardAlpha"/>
<feOffset dx="-1" dy="1"/>
<feComposite in2="hardAlpha" operator="out"/>
<feColorMatrix type="matrix" values="0 0 0 0 0.576923 0 0 0 0 0 0 0 0 0 0 0 0 0 1 0"/>
<feBlend mode="normal" in2="BackgroundImageFix" result="effect1_dropShadow_126_13663"/>
<feBlend mode="normal" in="SourceGraphic" in2="effect1_dropShadow_126_13663" result="shape"/>
</filter>
<linearGradient id="paint0_linear_126_13663" x1="177.829" y1="116.496" x2="111.18" y2="37.7336" gradientUnits="userSpaceOnUse">
<stop/>
<stop offset="1" stop-opacity="0"/>
</linearGradient>
<linearGradient id="paint1_linear_126_13663" x1="125.285" y1="93.7344" x2="137.145" y2="83.6979" gradientUnits="userSpaceOnUse">
<stop stop-color="white"/>
<stop offset="0.7262" stop-color="white" stop-opacity="0"/>
</linearGradient>
<linearGradient id="paint2_linear_126_13663" x1="137.018" y1="83.8134" x2="151.851" y2="71.2619" gradientUnits="userSpaceOnUse">
<stop stop-color="white"/>
<stop offset="0.7262" stop-color="white" stop-opacity="0"/>
</linearGradient>
<linearGradient id="paint3_linear_126_13663" x1="151.501" y1="71.557" x2="163.228" y2="61.6336" gradientUnits="userSpaceOnUse">
<stop stop-color="white"/>
<stop offset="0.7262" stop-color="white" stop-opacity="0"/>
</linearGradient>
<linearGradient id="paint4_linear_126_13663" x1="94.3281" y1="54.0314" x2="159.218" y2="130.714" gradientUnits="userSpaceOnUse">
<stop stop-color="white"/>
<stop offset="1" stop-color="white" stop-opacity="0"/>
</linearGradient>
<linearGradient id="paint5_linear_126_13663" x1="130.04" y1="23.8096" x2="194.93" y2="100.493" gradientUnits="userSpaceOnUse">
<stop stop-color="white"/>
<stop offset="1" stop-color="white" stop-opacity="0"/>
</linearGradient>
<radialGradient id="paint6_radial_126_13663" cx="0" cy="0" r="1" gradientTransform="matrix(-3.41047 -0.638379 -0.388578 2.07577 114.272 39.3806)" gradientUnits="userSpaceOnUse">
<stop offset="0.6444" stop-opacity="0"/>
<stop offset="0.9676" stop-opacity="0.9089"/>
<stop offset="1"/>
</radialGradient>
<radialGradient id="paint7_radial_126_13663" cx="0" cy="0" r="1" gradientUnits="userSpaceOnUse" gradientTransform="translate(112.428 38.9476) rotate(139.762) scale(1.43858)">
<stop stop-color="white"/>
<stop offset="1" stop-color="white" stop-opacity="0"/>
</radialGradient>
<radialGradient id="paint8_radial_126_13663" cx="0" cy="0" r="1" gradientTransform="matrix(-0.733367 0.620583 0.620586 0.733364 113.497 39.2269)" gradientUnits="userSpaceOnUse">
<stop stop-color="white"/>
<stop offset="1" stop-color="white" stop-opacity="0"/>
</radialGradient>
<linearGradient id="paint9_linear_126_13663" x1="97.8743" y1="66.649" x2="97.3235" y2="67.1151" gradientUnits="userSpaceOnUse">
<stop stop-color="white"/>
<stop offset="1" stop-color="white" stop-opacity="0"/>
</linearGradient>
<linearGradient id="paint10_linear_126_13663" x1="113.003" y1="84.5253" x2="112.452" y2="84.9915" gradientUnits="userSpaceOnUse">
<stop stop-color="white"/>
<stop offset="1" stop-color="white" stop-opacity="0"/>
</linearGradient>
<linearGradient id="paint11_linear_126_13663" x1="102.744" y1="72.4054" x2="102.194" y2="72.8702" gradientUnits="userSpaceOnUse">
<stop stop-color="white"/>
<stop offset="1" stop-color="white" stop-opacity="0"/>
</linearGradient>
<radialGradient id="paint12_radial_126_13663" cx="0" cy="0" r="1" gradientUnits="userSpaceOnUse" gradientTransform="translate(95.3274 19.1812) rotate(-16.8095) scale(78.5076 78.5076)">
<stop offset="0.2738" stop-color="#B56ECC" stop-opacity="0"/>
<stop offset="1" stop-color="#B56ECC"/>
</radialGradient>
<linearGradient id="paint13_linear_126_13663" x1="89.537" y1="54.7052" x2="80.1998" y2="43.6662" gradientUnits="userSpaceOnUse">
<stop stop-color="#B56ECC"/>
<stop offset="0.7262" stop-color="#B56ECC" stop-opacity="0"/>
</linearGradient>
<linearGradient id="paint14_linear_126_13663" x1="89.537" y1="54.7052" x2="80.1998" y2="43.6662" gradientUnits="userSpaceOnUse">
<stop stop-color="#B56ECC"/>
<stop offset="0.7262" stop-color="#B56ECC" stop-opacity="0"/>
</linearGradient>
<linearGradient id="paint15_linear_126_13663" x1="89.7183" y1="54.8475" x2="87.4317" y2="52.1551" gradientUnits="userSpaceOnUse">
<stop stop-color="#562E77"/>
<stop offset="0.3875" stop-color="#562E77" stop-opacity="0"/>
</linearGradient>
<linearGradient id="paint16_linear_126_13663" x1="18.6646" y1="54.1515" x2="32.2545" y2="70.7126" gradientUnits="userSpaceOnUse">
<stop offset="0.1028" stop-color="#562E77"/>
<stop offset="0.8602" stop-color="#562E77" stop-opacity="0"/>
</linearGradient>
<linearGradient id="paint17_linear_126_13663" x1="18.6646" y1="54.1515" x2="32.2545" y2="70.7126" gradientUnits="userSpaceOnUse">
<stop offset="0.5162" stop-color="white" stop-opacity="0"/>
<stop offset="1" stop-color="white"/>
</linearGradient>
<linearGradient id="paint18_linear_126_13663" x1="187.68" y1="109.58" x2="207.21" y2="133.222" gradientUnits="userSpaceOnUse">
<stop stop-color="#562E77"/>
<stop offset="0.5473" stop-color="#562E77" stop-opacity="0"/>
</linearGradient>
<linearGradient id="paint19_linear_126_13663" x1="186.412" y1="109.58" x2="189.609" y2="113.451" gradientUnits="userSpaceOnUse">
<stop stop-color="#562E77"/>
<stop offset="1" stop-color="#562E77" stop-opacity="0"/>
</linearGradient>
<linearGradient id="paint20_linear_126_13663" x1="246.239" y1="99.8144" x2="257.436" y2="114.115" gradientUnits="userSpaceOnUse">
<stop stop-opacity="0"/>
<stop offset="1"/>
</linearGradient>
<linearGradient id="paint21_linear_126_13663" x1="246.239" y1="99.8144" x2="257.436" y2="114.115" gradientUnits="userSpaceOnUse">
<stop offset="0.6899" stop-color="#562E77" stop-opacity="0"/>
<stop offset="1" stop-color="#562E77"/>
</linearGradient>
<linearGradient id="paint22_linear_126_13663" x1="246.239" y1="95.9124" x2="257.436" y2="110.213" gradientUnits="userSpaceOnUse">
<stop stop-color="#FFEC00"/>
<stop offset="0.4838" stop-color="#FFEC00" stop-opacity="0"/>
</linearGradient>
</defs>
</svg>
