<svg width="82" height="18" viewBox="0 0 82 18" fill="none" xmlns="http://www.w3.org/2000/svg">
<mask id="mask0_95_3364" style="mask-type:alpha" maskUnits="userSpaceOnUse" x="1" y="3" width="80" height="12">
<path d="M3.6415 3.33594V14H1.45156V3.33594H3.6415ZM14.0788 3.33594V14H11.8815L7.59687 6.85156V14H5.39961V3.33594H7.59687L11.8889 10.4917V3.33594H14.0788ZM17.8877 3.33594V14H15.6904V3.33594H17.8877ZM22.1357 7.8916V9.60547H17.2871V7.8916H22.1357ZM22.6484 3.33594V5.05713H17.2871V3.33594H22.6484ZM30.4783 12.2861V14H25.1097V12.2861H30.4783ZM25.8201 3.33594V14H23.6229V3.33594H25.8201ZM38.5938 12.2861V14H32.9176V12.2861H38.5938ZM33.6353 3.33594V14H31.4381V3.33594H33.6353ZM37.8541 7.6792V9.34912H32.9176V7.6792H37.8541ZM38.5865 3.33594V5.05713H32.9176V3.33594H38.5865ZM45.7572 10.4624H47.9472C47.9032 11.1802 47.7055 11.8174 47.3539 12.374C47.0072 12.9307 46.5214 13.3652 45.8964 13.6777C45.2763 13.9902 44.5292 14.1465 43.6552 14.1465C42.9716 14.1465 42.3588 14.0293 41.8168 13.7949C41.2748 13.5557 40.8109 13.2139 40.4252 12.7695C40.0443 12.3252 39.7538 11.7881 39.5536 11.1582C39.3534 10.5283 39.2533 9.82275 39.2533 9.0415V8.30176C39.2533 7.52051 39.3559 6.81494 39.5609 6.18506C39.7709 5.55029 40.0687 5.01074 40.4545 4.56641C40.8451 4.12207 41.3114 3.78027 41.8534 3.54102C42.3954 3.30176 43.0009 3.18213 43.6698 3.18213C44.5585 3.18213 45.308 3.34326 45.9184 3.66553C46.5336 3.98779 47.0097 4.43213 47.3466 4.99854C47.6884 5.56494 47.8935 6.20947 47.9618 6.93213H45.7645C45.7401 6.50244 45.6547 6.13867 45.5082 5.84082C45.3617 5.53809 45.1395 5.31104 44.8417 5.15967C44.5487 5.00342 44.1581 4.92529 43.6698 4.92529C43.3036 4.92529 42.9838 4.99365 42.7104 5.13037C42.4369 5.26709 42.2074 5.47461 42.0219 5.75293C41.8363 6.03125 41.6972 6.38281 41.6044 6.80762C41.5165 7.22754 41.4726 7.7207 41.4726 8.28711V9.0415C41.4726 9.59326 41.5141 10.0791 41.5971 10.499C41.6801 10.9141 41.807 11.2656 41.9779 11.5537C42.1537 11.8369 42.3783 12.0518 42.6518 12.1982C42.9301 12.3398 43.2645 12.4106 43.6552 12.4106C44.1142 12.4106 44.4926 12.3374 44.7904 12.1909C45.0883 12.0444 45.3153 11.8271 45.4716 11.5391C45.6327 11.251 45.7279 10.8921 45.7572 10.4624ZM53.6384 3.33594V14H51.4484V3.33594H53.6384ZM56.9196 3.33594V5.05713H48.2185V3.33594H56.9196ZM60.2085 3.33594V14H58.0186V3.33594H60.2085ZM70.7264 8.41895V8.92432C70.7264 9.73486 70.6165 10.4624 70.3968 11.1069C70.177 11.7515 69.867 12.3008 69.4666 12.7549C69.0662 13.2041 68.5877 13.5483 68.0311 13.7876C67.4793 14.0269 66.8665 14.1465 66.1927 14.1465C65.5237 14.1465 64.9109 14.0269 64.3543 13.7876C63.8025 13.5483 63.324 13.2041 62.9187 12.7549C62.5135 12.3008 62.1985 11.7515 61.9739 11.1069C61.7542 10.4624 61.6443 9.73486 61.6443 8.92432V8.41895C61.6443 7.60352 61.7542 6.87598 61.9739 6.23633C62.1936 5.5918 62.5037 5.04248 62.9041 4.58838C63.3094 4.13428 63.7879 3.7876 64.3396 3.54834C64.8963 3.30908 65.5091 3.18945 66.178 3.18945C66.8519 3.18945 67.4646 3.30908 68.0164 3.54834C68.573 3.7876 69.0516 4.13428 69.452 4.58838C69.8572 5.04248 70.1697 5.5918 70.3895 6.23633C70.6141 6.87598 70.7264 7.60352 70.7264 8.41895ZM68.5071 8.92432V8.4043C68.5071 7.83789 68.4559 7.33984 68.3533 6.91016C68.2508 6.48047 68.0994 6.11914 67.8992 5.82617C67.699 5.5332 67.4549 5.31348 67.1668 5.16699C66.8787 5.01562 66.5491 4.93994 66.178 4.93994C65.8069 4.93994 65.4773 5.01562 65.1893 5.16699C64.9061 5.31348 64.6644 5.5332 64.4642 5.82617C64.2688 6.11914 64.1199 6.48047 64.0174 6.91016C63.9148 7.33984 63.8636 7.83789 63.8636 8.4043V8.92432C63.8636 9.48584 63.9148 9.98389 64.0174 10.4185C64.1199 10.8481 64.2713 11.2119 64.4715 11.5098C64.6717 11.8027 64.9158 12.0249 65.2039 12.1763C65.492 12.3276 65.8216 12.4033 66.1927 12.4033C66.5638 12.4033 66.8934 12.3276 67.1814 12.1763C67.4695 12.0249 67.7112 11.8027 67.9065 11.5098C68.1019 11.2119 68.2508 10.8481 68.3533 10.4185C68.4559 9.98389 68.5071 9.48584 68.5071 8.92432ZM80.6876 3.33594V14H78.4903L74.2057 6.85156V14H72.0084V3.33594H74.2057L78.4977 10.4917V3.33594H80.6876Z" fill="black"/>
</mask>
<g mask="url(#mask0_95_3364)">
<rect x="-2" width="86" height="20" fill="white"/>
</g>
</svg>
